<?xml version="1.0" encoding="UTF-8"?>
<!DOCTYPE svg PUBLIC "-//W3C//DTD SVG 1.1//EN" "http://www.w3.org/Graphics/SVG/1.1/DTD/svg11.dtd">
<!-- Creator: CorelDRAW 2017 -->
<svg xmlns="http://www.w3.org/2000/svg" xml:space="preserve" width="7.9375mm" height="7.9376mm" version="1.1" style="shape-rendering:geometricPrecision; text-rendering:geometricPrecision; image-rendering:optimizeQuality; fill-rule:evenodd; clip-rule:evenodd"
viewBox="0 0 123.78 123.79"
 xmlns:xlink="http://www.w3.org/1999/xlink">
 <defs>
  <style type="text/css">
   <![CDATA[
    .fil0 {fill:black}
    .fil1 {fill:white}
   ]]>
  </style>
 </defs>
 <g id="Layer_x0020_1">
  <metadata id="CorelCorpID_0Corel-Layer"/>
  <rect class="fil0" x="-0" y="0" width="123.79" height="123.79"/>
  <polygon class="fil1" points="27.77,8.24 30.74,36.6 44.18,27.36 34.94,40.8 50.98,43.77 34.94,46.74 44.18,60.19 30.73,50.95 27.77,83.89 24.79,50.94 11.35,60.19 20.59,46.74 4.55,43.77 20.59,40.8 11.35,27.36 24.79,36.6 "/>
  <polygon class="fil1" points="99.03,83.89 100.05,93.69 104.7,90.5 101.51,95.14 107.05,96.17 101.5,97.2 104.7,101.84 100.05,98.65 99.03,110.03 98,98.65 93.36,101.84 96.55,97.2 91.01,96.17 96.55,95.14 93.36,90.5 98,93.69 "/>
  <polygon class="fil1" points="86.49,46.07 87.52,55.87 92.16,52.67 88.97,57.32 94.51,58.34 88.97,59.37 92.16,64.02 87.52,60.82 86.49,72.21 85.46,60.82 80.82,64.02 84.01,59.37 78.47,58.34 84.01,57.32 80.82,52.67 85.47,55.87 "/>
  <polygon class="fil1" points="75.57,76.05 76.6,85.85 81.24,82.65 78.05,87.3 83.59,88.32 78.05,89.35 81.24,93.99 76.6,90.8 75.57,102.18 74.54,90.8 69.9,93.99 73.09,89.35 67.55,88.32 73.09,87.3 69.9,82.65 74.55,85.84 "/>
 </g>
</svg>
