<?xml version="1.0" encoding="UTF-8"?>
<!DOCTYPE svg PUBLIC "-//W3C//DTD SVG 1.1//EN" "http://www.w3.org/Graphics/SVG/1.1/DTD/svg11.dtd">
<!-- Creator: CorelDRAW 2017 -->
<svg xmlns="http://www.w3.org/2000/svg" xml:space="preserve" width="8.2487mm" height="7.9376mm" version="1.1" style="shape-rendering:geometricPrecision; text-rendering:geometricPrecision; image-rendering:optimizeQuality; fill-rule:evenodd; clip-rule:evenodd"
viewBox="0 0 525.45 505.64"
 xmlns:xlink="http://www.w3.org/1999/xlink">
 <defs>
  <style type="text/css">
   <![CDATA[
    .fil0 {fill:none}
    .fil1 {fill:#BD2007}
   ]]>
  </style>
 </defs>
 <g id="Layer_x0020_1">
  <metadata id="CorelCorpID_0Corel-Layer"/>
  <rect class="fil0" x="9.91" y="0" width="505.64" height="505.64"/>
  <path class="fil1" d="M396.48 19.44l-0.52 0.18 0.12 -0.18c-29.19,11.46 -61.38,13.93 -94.72,12.95 16.14,5.89 32.19,12.95 48.54,15 -2.19,1.94 -4.36,3.96 -6.5,6.05 -15.75,3.12 -32.3,3.79 -49.25,3.29 11.87,4.34 23.7,9.5 35.71,11.22 -11.8,13.86 -22.88,30.05 -33.33,48.26 1.45,-43.26 -30.03,-82.37 -103.3,-116.21l-0.15 0.32 -0.1 -0.32 -0.57 1.67c-2.43,5.03 -4.52,10.26 -6.26,15.66 -10.49,22.88 -25.95,43.81 -43.6,63.91 12.54,-7.34 25.68,-14.1 36.7,-22.84 -0.18,4.75 -0.18,9.61 -0.02,14.54 -6.53,10.17 -14.22,19.89 -22.54,29.37 7.93,-4.64 16.19,-8.98 23.56,-14.14 1.25,12.63 3.49,25.79 6.62,39.43 -28.68,-25.88 -75.81,-30.95 -145.77,-10.25l0.28 1.05 -2.14 -3.29c-0.62,31.35 -10.67,62.03 -24.36,92.44 16.36,-17.77 34.79,-34.55 39.8,-57.8 1.1,1.87 2.24,3.72 3.43,5.56 -1.96,20.62 -8.92,40.88 -17.96,60.98 12.49,-13.59 26.58,-26.4 30.3,-44.23 13.2,15.89 30.04,30.94 49.92,45.27 -45.04,-3.7 -85.6,27.47 -120.4,103.32 3.79,1.89 7.7,3.59 11.7,5.08 17.26,20.55 29.82,45.32 40.37,71.87 -1.29,-22.45 -0.71,-45.59 -11.28,-64.64 2.23,0.31 4.48,0.57 6.77,0.8 11.94,15.04 20.83,32.81 28.37,51.78 -1.03,-17.79 -0.5,-36.14 -9.66,-50.95 22.63,-0.1 47.27,-3.99 73.56,-10.97 -32.27,27.75 -40.25,76.93 -17.47,153.21 3.93,-1.03 7.8,-2.27 11.63,-3.71 26.95,4.61 52.92,15.8 78.49,29.74 -15.85,-16.99 -30.63,-35.81 -52.01,-43.25 1.72,-1.11 3.44,-2.28 5.13,-3.48 19.72,3.71 38.77,11.99 57.52,22.21 -12.82,-13.75 -24.73,-29.09 -42.78,-33.86 19.06,-16.65 36.87,-38.57 53.69,-64.7 -6.62,46.72 23.62,89.09 101.53,125.85 2.48,-4.84 4.62,-9.86 6.46,-15.05 19.5,-19.12 43.73,-33.6 69.96,-46.16 -22.01,2.78 -44.79,3.78 -62.96,15.17 0.28,-2.41 0.52,-4.85 0.69,-7.32 13.96,-12.47 30.68,-22.24 48.61,-30.83 -16.86,2.13 -34.32,2.89 -48.18,11.75 -0.55,-23.2 -4.87,-48.45 -12.25,-75.37 28.16,43.92 81.2,54.45 167.06,20.9 -1.32,-3.75 -2.84,-7.44 -4.54,-11.06 -0.53,-28.43 6.32,-57.01 16.16,-85.65 -13.94,18.25 -29.82,35.79 -33.81,57.76 -1.41,-1.76 -2.87,-3.49 -4.38,-5.22 0.57,-19.58 5.48,-39.24 12.24,-58.94 -10.82,14.16 -23.17,27.75 -25.86,44.95 -15.97,-14.84 -35.62,-28.48 -58.31,-41.14 42.49,2.48 82.39,-27.35 119.01,-98.04l-0.26 -0.14 0.26 0.01c-24.94,-19 -43.77,-45.23 -60.24,-74.23 4.14,20.93 6.7,42.72 18.14,59.76l-1.03 -0.18c-16.94,-14.1 -30.07,-32.71 -41.66,-53.12 3.59,18.19 5.62,37.23 17.99,50.76 -20.22,-0.75 -42.15,1.41 -65.56,6.02 27.4,-30.28 30.58,-79 3.38,-150.85zm-165.1 141.57l27.82 69.28 -5.82 -88.37 -22 19.08zm-50.46 48.35l70.4 24.82 -70.22 -53.95 -0.18 29.12zm-3.57 62.93l67.93 -30.97 -88 9.86 20.07 21.1zm51.2 54.95l24.33 -70.58 -53.46 70.6 29.12 -0.02zm79.39 -5.94l-34.9 -66.01 15 87.28 19.9 -21.28zm63.5 -44.05l-69.49 -27.29 68.28 56.39 1.21 -29.11zm-7.06 -70.93l-71.93 20.03 88.47 3.94 -16.55 -23.97zm-59.49 -53.97l-31.85 67.52 60.81 -64.38 -28.96 -3.15z"/>
 </g>
</svg>
