<?xml version="1.0" encoding="UTF-8"?>
<!DOCTYPE svg PUBLIC "-//W3C//DTD SVG 1.1//EN" "http://www.w3.org/Graphics/SVG/1.1/DTD/svg11.dtd">
<!-- Creator: CorelDRAW 2017 -->
<svg xmlns="http://www.w3.org/2000/svg" xml:space="preserve" width="7.9876mm" height="7.9376mm" version="1.1" style="shape-rendering:geometricPrecision; text-rendering:geometricPrecision; image-rendering:optimizeQuality; fill-rule:evenodd; clip-rule:evenodd"
viewBox="0 0 198.38 197.14"
 xmlns:xlink="http://www.w3.org/1999/xlink">
 <defs>
  <style type="text/css">
   <![CDATA[
    .fil0 {fill:none}
    .fil1 {fill:#990000}
   ]]>
  </style>
 </defs>
 <g id="Layer_x0020_1">
  <metadata id="CorelCorpID_0Corel-Layer"/>
  <rect class="fil0" x="0.62" y="0" width="197.14" height="197.14"/>
  <path class="fil1" d="M124.6 0c-21.06,13.45 -31.4,44.65 -36.23,85 50.26,-11.68 69.14,-37.05 36.23,-85z"/>
  <path class="fil1" d="M187.97 49.04c-24.07,-6.7 -54.2,6.42 -87.47,29.76 42.25,29.62 73.74,26.75 87.47,-29.76z"/>
  <path class="fil1" d="M198.38 125.11c-13.67,-20.91 -44.98,-30.93 -85.38,-35.33 12.21,50.13 37.78,68.74 85.38,35.33z"/>
  <path class="fil1" d="M146.36 188.38c5.8,-24.3 -8.43,-53.93 -33,-86.3 -28.03,43.32 -23.98,74.68 33,86.3z"/>
  <path class="fil1" d="M63.57 197.14c21.97,-11.9 34.52,-42.28 42.23,-82.18 -50.97,8.05 -71.62,31.99 -42.23,82.18z"/>
  <path class="fil1" d="M3.22 149.67c24.36,5.54 53.84,-9.01 85.94,-33.92 -43.62,-27.57 -74.93,-23.19 -85.94,33.92z"/>
  <path class="fil1" d="M-0 69.46c11.85,22 42.19,34.63 82.08,42.43 -7.92,-50.99 -31.82,-71.7 -82.08,-42.43z"/>
  <path class="fil1" d="M46.4 11.37c-5.61,24.35 8.87,53.86 33.7,86.03 27.68,-43.55 23.38,-74.87 -33.7,-86.03z"/>
  <circle class="fil1" cx="97.43" cy="101.02" r="38.07"/>
 </g>
</svg>
