<?xml version="1.0" encoding="UTF-8"?>
<!DOCTYPE svg PUBLIC "-//W3C//DTD SVG 1.1//EN" "http://www.w3.org/Graphics/SVG/1.1/DTD/svg11.dtd">
<!-- Creator: CorelDRAW 2017 -->
<svg xmlns="http://www.w3.org/2000/svg" xml:space="preserve" width="7.9876mm" height="7.9376mm" version="1.1" style="shape-rendering:geometricPrecision; text-rendering:geometricPrecision; image-rendering:optimizeQuality; fill-rule:evenodd; clip-rule:evenodd"
viewBox="0 0 124.59 123.81"
 xmlns:xlink="http://www.w3.org/1999/xlink">
 <defs>
  <style type="text/css">
   <![CDATA[
    .fil0 {fill:none}
    .fil1 {fill:#669999}
   ]]>
  </style>
 </defs>
 <g id="Layer_x0020_1">
  <metadata id="CorelCorpID_0Corel-Layer"/>
  <rect class="fil0" x="0.39" y="0" width="123.81" height="123.81"/>
  <path class="fil1" d="M78.25 0c-13.22,8.44 -19.72,28.04 -22.75,53.38 31.56,-7.34 43.42,-23.27 22.75,-53.38z"/>
  <path class="fil1" d="M118.04 30.8c-15.11,-4.21 -34.04,4.03 -54.93,18.69 26.53,18.6 46.31,16.8 54.93,-18.69z"/>
  <path class="fil1" d="M124.59 78.57c-8.58,-13.13 -28.25,-19.42 -53.62,-22.18 7.67,31.48 23.73,43.17 53.62,22.18z"/>
  <path class="fil1" d="M91.92 118.3c3.64,-15.26 -5.3,-33.87 -20.72,-54.2 -17.6,27.21 -15.06,46.9 20.72,54.2z"/>
  <path class="fil1" d="M39.92 123.81c13.79,-7.47 21.68,-26.55 26.52,-51.61 -32.01,5.06 -44.98,20.09 -26.52,51.61z"/>
  <path class="fil1" d="M2.02 94c15.3,3.48 33.81,-5.66 53.97,-21.3 -27.39,-17.31 -47.06,-14.56 -53.97,21.3z"/>
  <path class="fil1" d="M-0 43.62c7.44,13.81 26.5,21.75 51.54,26.65 -4.98,-32.02 -19.98,-45.03 -51.54,-26.65z"/>
  <path class="fil1" d="M29.14 7.14c-3.52,15.29 5.57,33.82 21.16,54.03 17.38,-27.35 14.68,-47.02 -21.16,-54.03z"/>
  <circle class="fil1" cx="61.18" cy="63.44" r="23.91"/>
 </g>
</svg>
