<?xml version="1.0" encoding="UTF-8"?>
<!DOCTYPE svg PUBLIC "-//W3C//DTD SVG 1.1//EN" "http://www.w3.org/Graphics/SVG/1.1/DTD/svg11.dtd">
<!-- Creator: CorelDRAW 2017 -->
<svg xmlns="http://www.w3.org/2000/svg" xml:space="preserve" width="7.9376mm" height="7.9376mm" version="1.1" style="shape-rendering:geometricPrecision; text-rendering:geometricPrecision; image-rendering:optimizeQuality; fill-rule:evenodd; clip-rule:evenodd"
viewBox="0 0 763.26 763.26"
 xmlns:xlink="http://www.w3.org/1999/xlink">
 <defs>
  <style type="text/css">
   <![CDATA[
    .fil0 {fill:none}
    .fil1 {fill:#669999}
   ]]>
  </style>
 </defs>
 <g id="Layer_x0020_1">
  <metadata id="CorelCorpID_0Corel-Layer"/>
  <rect class="fil0" x="0" y="0" width="763.26" height="763.26"/>
  <g id="_2581444521088">
   <ellipse class="fil1" transform="matrix(0.317993 -0.230535 0.230536 0.317991 182.263 541.308)" rx="491.21" ry="407.06"/>
   <rect class="fil1" transform="matrix(0.356568 -0.258501 0.154248 0.212763 248.789 442.732)" width="982.42" height="310.22"/>
   <rect class="fil1" transform="matrix(0.376727 -0.111098 0.111098 0.376725 264.683 218.571)" width="181.78" height="482.04"/>
   <rect class="fil1" transform="matrix(0.384144 -0.0818489 0.0818492 0.384143 348.506 158.155)" width="181.78" height="482.04"/>
   <rect class="fil1" transform="matrix(0.392183 -0.0214153 0.0214154 0.392181 445.147 106.404)" width="181.78" height="482.04"/>
   <rect class="fil1" transform="matrix(0.392183 -0.0214152 0.0214153 0.392181 527.578 53.8466)" width="181.78" height="482.04"/>
   <rect class="fil1" transform="matrix(0.222742 -0.323499 -0.3235 -0.222741 499.082 541.892)" width="181.78" height="482.04"/>
   <rect class="fil1" transform="matrix(0.19725 -0.339644 -0.339645 -0.197249 582.57 481.013)" width="181.78" height="482.04"/>
   <rect class="fil1" transform="matrix(0.142312 -0.366077 -0.366079 -0.142311 661.807 405.257)" width="181.78" height="482.04"/>
   <rect class="fil1" transform="matrix(0.142312 -0.366077 -0.366079 -0.142311 737.394 343.257)" width="181.78" height="482.04"/>
  </g>
 </g>
</svg>
