<?xml version="1.0" encoding="UTF-8"?>
<!DOCTYPE svg PUBLIC "-//W3C//DTD SVG 1.1//EN" "http://www.w3.org/Graphics/SVG/1.1/DTD/svg11.dtd">
<!-- Creator: CorelDRAW 2017 -->
<svg xmlns="http://www.w3.org/2000/svg" xml:space="preserve" width="7.9375mm" height="7.9376mm" version="1.1" style="shape-rendering:geometricPrecision; text-rendering:geometricPrecision; image-rendering:optimizeQuality; fill-rule:evenodd; clip-rule:evenodd"
viewBox="0 0 68.05 68.05"
 xmlns:xlink="http://www.w3.org/1999/xlink">
 <defs>
  <style type="text/css">
   <![CDATA[
    .fil0 {fill:none}
    .fil1 {fill:#666633}
   ]]>
  </style>
 </defs>
 <g id="Layer_x0020_1">
  <metadata id="CorelCorpID_0Corel-Layer"/>
  <rect class="fil0" x="-0" y="0" width="68.05" height="68.05"/>
  <g id="_2581409827680">
   <path class="fil1" d="M1.06 32.97l28.87 -13 8.82 0 28.25 13 0 3.13c-22.24,3.13 -44.2,2.86 -65.94,0l0 -3.13z"/>
   <g>
    <polygon class="fil1" points="28.37,47.91 32.39,42.34 36.41,36.77 28.37,36.77 20.32,36.77 24.35,42.34 "/>
    <polygon class="fil1" points="39.69,47.91 43.71,42.34 47.73,36.77 39.69,36.77 31.64,36.77 35.66,42.34 "/>
    <polygon class="fil1" points="25.38,42.34 30.65,53.87 28.01,42.34 31.64,52.38 31.64,43.37 34.96,53.87 34.96,42.34 36.41,51.68 37.61,43.19 38.54,52.48 41,42.34 39.69,52.96 43.65,40.87 32.97,38.08 "/>
   </g>
   <polygon class="fil1" points="25.2,21.36 29.3,17.27 27.25,22.77 31.32,17.27 31.32,23.41 34.03,14.18 36.81,22.29 37.47,17.38 46.16,23.38 "/>
  </g>
 </g>
</svg>
